<?xml version="1.0" encoding="UTF-8"?>
<svg width="375px" height="329px" viewBox="0 0 375 329" version="1.1" xmlns="http://www.w3.org/2000/svg" xmlns:xlink="http://www.w3.org/1999/xlink">
    <g stroke="none" stroke-width="1" fill="none" fill-rule="evenodd">
        <g transform="translate(-5.000000, -3.000000)" fill="#00A1E4">
            <g transform="translate(5.000000, 3.000000)">
                <path d="M113.809902,0.907765904 C144.158283,-2.63897935 173.50559,17.5738636 181.916285,43.8735759 C190.202191,70.9608376 173.222738,95.9433459 144.474412,99.7729434 C114.752743,104.259756 83.3977397,86.1516668 73.667068,57.9662729 C64.7544494,29.9084398 83.4615201,4.42400749 113.809902,0.907765904" id="Fill-1"></path>
                <path d="M4.58817271,187.596623 C-8.18454712,161.452202 7.91584614,129.997369 41.2480416,119.387637 C72.9774077,108.622614 109.479212,121.866754 121.436652,147.950167 C133.394092,174.069631 118.297547,203.100808 87.3196802,214.714388 C55.5598104,226.261415 18.1151652,214.650608 4.58817271,187.596623" id="Fill-3"></path>
                <path d="M291.012117,184.991332 C280.435661,162.238365 290.196837,136.240916 312.952577,127.297794 C334.85976,118.351899 360.846116,128.928354 370.607292,150.866041 C380.335191,172.784317 371.389295,197.955393 350.300165,206.898515 C328.362478,216.659691 301.558068,206.898515 291.012117,184.991332" id="Fill-5"></path>
                <path d="M283.793838,20.4301167 C308.964915,31.006572 321.141426,57.8082084 312.198304,79.7153918 C303.285685,102.471132 275.665996,112.201804 250.49492,102.471132 C224.508563,91.8946765 210.695945,64.2749871 220.426617,41.5525237 C229.372513,18.7967836 258.592258,9.06611192 283.793838,20.4301167" id="Fill-7"></path>
                <path d="M149.055232,229.024493 C178.402539,230.061618 197.483973,252.534506 193.341019,279.211355 C188.443793,306.043495 160.7936,327.920174 131.00815,328.644233 C100.282632,328.738228 79.4430772,305.824423 84.9975187,278.049442 C89.7366803,250.365972 118.956426,228.175937 149.055232,229.024493" id="Fill-9"></path>
                <path d="M225.353792,258.339355 C234.299688,235.616892 259.470764,223.407103 281.408451,231.504442 C303.346138,238.850281 314.710143,263.206077 307.394807,285.959045 C299.266965,307.896732 274.880665,320.860793 252.158202,313.578734 C229.402462,307.081452 217.22595,281.877098 225.353792,258.339355" id="Fill-11"></path>
                <path d="M188.193663,127.799718 C211.764683,118.038543 240.169149,127.799718 250.745604,148.922125 C261.291556,170.050078 251.530381,194.439152 227.989864,204.951827 C204.452121,215.531055 176.017151,206.615663 164.653147,184.647472 C153.261411,163.555569 163.837867,137.560894 188.193663,127.799718" id="Fill-13"></path>
            </g>
        </g>
    </g>
</svg>